inDegrees=no
num_controls=7
num_derivatives=13
num_iterations=106
num_multipliers=7
num_parameters=0
num_slacks=7
num_states=26
objective=5.245283
objective_accelerations=0.608151
objective_balance=0.050032
objective_effort=0.574068
objective_height=3.964511
objective_ligament=0.048522
solver_duration=1098.369943
status=Solve_Succeeded
success=true
DataType=double
version=3
OpenSimVersion=4.4-2022-07-23-0e9fedc
endheader
time	/jointset/ground_pelvis/pelvis_tilt/value	/jointset/ground_pelvis/pelvis_tx/value	/jointset/ground_pelvis/pelvis_ty/value	/jointset/hip_l/hip_flexion_l/value	/jointset/hip_l/hip_adduction_l/value	/jointset/hip_l/hip_rotation_l/value	/jointset/back/lumbar_extension/value	/jointset/patellofemoral_l/patellar_flexion_l/value	/jointset/knee_l/knee_flexion_l/value	/jointset/knee_l/knee_adduction_l/value	/jointset/knee_l/knee_rotation_l/value	/jointset/ankle_l/ankle_angle_l/value	/jointset/subtalar_l/subtalar_angle_l/value	/jointset/ground_pelvis/pelvis_tilt/speed	/jointset/ground_pelvis/pelvis_tx/speed	/jointset/ground_pelvis/pelvis_ty/speed	/jointset/hip_l/hip_flexion_l/speed	/jointset/hip_l/hip_adduction_l/speed	/jointset/hip_l/hip_rotation_l/speed	/jointset/back/lumbar_extension/speed	/jointset/patellofemoral_l/patellar_flexion_l/speed	/jointset/knee_l/knee_flexion_l/speed	/jointset/knee_l/knee_adduction_l/speed	/jointset/knee_l/knee_rotation_l/speed	/jointset/ankle_l/ankle_angle_l/speed	/jointset/subtalar_l/subtalar_angle_l/speed	/forceset/tau_hip_flexion_l	/forceset/tau_hip_adduction_l	/forceset/tau_hip_rotation_l	/forceset/tau_knee_flexion_l	/forceset/tau_ankle_angle_l	/forceset/tau_subtalar_angle_l	/forceset/tau_lumbar_extension	lambda_cid13_p0	lambda_cid13_p1	lambda_cid13_p2	lambda_cid13_p3	lambda_cid13_p4	lambda_cid13_p5	lambda_cid14_p0	/jointset/ground_pelvis/pelvis_tilt/accel	/jointset/ground_pelvis/pelvis_tx/accel	/jointset/ground_pelvis/pelvis_ty/accel	/jointset/hip_l/hip_flexion_l/accel	/jointset/hip_l/hip_adduction_l/accel	/jointset/hip_l/hip_rotation_l/accel	/jointset/back/lumbar_extension/accel	/jointset/patellofemoral_l/patellar_flexion_l/accel	/jointset/knee_l/knee_flexion_l/accel	/jointset/knee_l/knee_adduction_l/accel	/jointset/knee_l/knee_rotation_l/accel	/jointset/ankle_l/ankle_angle_l/accel	/jointset/subtalar_l/subtalar_angle_l/accel	gamma_cid13_p0	gamma_cid13_p1	gamma_cid13_p2	gamma_cid13_p3	gamma_cid13_p4	gamma_cid13_p5	gamma_cid14_p0
0.5	-0.113105824868133	-0.0469962142145408	0.7692818188305254	1.071563292086917	-0.3174849365098225	-0.06706176882686471	-0.8039403957233359	1.079544533942056	1.079544533943137	-0.03571457430920535	-0.1745195163928096	0.2020958098679904	0.04816893040179748	-0.1509171074976727	-0.1433898067183881	-0.573278966982573	1.968093743954373	-0.00824494889076818	0.5212236769911682	-0.822598069437613	2.198169922845586	2.198169922844753	0.3404310743783368	-2.293515043993583e-05	0.5337024507579065	0.1988328361987662	-0.2892660074936673	0.0258049267098738	-0.009118214613534641	-0.2763335028538251	0.08097783407052404	0.03897559617838511	0.3406926093326879	-17.45875257042059	-13.60882694988069	1.416760575835395	-12.05645638752319	-697.3816502958935	-65.88643987109444	-3.765913289827109	0.5388200945433427	0.8308485818093797	-0.3265252034129901	-1.746101534931944	0.1869192809373278	-0.7366438824307623	2.153820980640418	-1.726954072626778	-1.726954072626764	-0.2338575151133799	0.04048927093430083	-0.6503444463081907	0.1246710785159005	-2.119844772978015e-07	-1.458480504094901e-06	3.239890262784892e-07	-1.601340049607216e-07	-2.424262269409561e-07	-4.346902573752621e-07	-2.270615128440384e-07
0.51	-0.1145877991514894	-0.04838860672199152	0.7635340436316101	1.091154152421136	-0.3175589370951062	-0.06188791503971854	-0.8120579599476778	1.101436556912861	1.101436556914077	-0.03232259697079942	-0.1745195206087855	0.2073990763366306	0.05016193321031846	-0.1454513617566624	-0.13509251384696	-0.5761405534729525	1.949816190557168	-0.006567924175141809	0.5134785907709979	-0.8008400685340988	2.179927714932294	2.179927714931989	0.3379680028144852	9.36534325518044e-06	0.5268660030285295	0.1997188784578585	-0.2962049412465472	0.02594719433773206	-0.009167883037525531	-0.2818177131603828	0.07995953926826009	0.03865122974568766	0.3477083011626702	-18.16294844526747	-13.17723907394142	1.156724412053774	-11.78972363856963	-703.505650373932	-65.64503099717294	-3.135834935147204	0.5543922952006803	0.828566385061331	-0.2456933969992475	-1.907921072259576	0.1562400635962826	-0.8039298945631081	2.197995679428213	-1.918854420140533	-1.918854420061221	-0.2522122724563385	-0.01725505215869242	-0.7130856849920519	0.06342223877362134	-1.912068796523316e-07	-1.304233877190166e-06	3.226578657761926e-07	-1.49565204978636e-07	-2.193800534322184e-07	-3.821733274936586e-07	-2.07382090258034e-07
0.52	-0.1160143278811577	-0.04969814695167692	0.7577617089627612	1.110554369455382	-0.3176165382338779	-0.05679360989534236	-0.8199557029561357	1.123136957750637	1.123136957751988	-0.02895518640709108	-0.1745195729179566	0.2126314201782281	0.05216236672926512	-0.1398279967628552	-0.1268193511653272	-0.5781908609692791	1.929965083954192	-0.004965059590677587	0.5053139484406995	-0.7786338262617672	2.159845496240595	2.159845496240819	0.3355177194332364	-3.255379287402835e-05	0.5195179253495681	0.2003189782836656	-0.3031438749993441	0.02608946196558908	-0.00921755146113535	-0.2873019234669246	0.07894124446598075	0.03832686331298125	0.3547239929927269	-18.86804177249824	-12.75116272522118	0.9040418805426295	-11.58163338310078	-709.6542606350771	-65.44788862600403	-2.56306871134403	0.5703439451024866	0.826022543850546	-0.1642694046023882	-2.060812176086168	0.172087254704918	-0.8205551044563237	2.243469254403797	-2.094956228308204	-2.094956228308119	-0.2312998785928367	0.02564534496951577	-0.7526704362247341	0.06748259185902611	-1.729309138661344e-07	-1.191062706239598e-06	2.980208211892119e-07	-1.44705739528798e-07	-1.986870752107481e-07	-3.504489313833805e-07	-1.900913223131109e-07
0.53	-0.1173838705414027	-0.05092516355144006	0.7519729288351934	1.129748404610089	-0.3176584955119066	-0.05178230516346204	-0.8276293420763696	1.144627612467858	1.144627612468081	-0.0256127231522013	-0.1745200359527598	0.2177878516111707	0.05416735173875099	-0.1340545480806043	-0.118596124445042	-0.5794283667070521	1.90858820897345	-0.003448552666964551	0.4969372410587078	-0.7560430627063395	2.137998666455628	2.137998666456155	0.3329171950027683	-5.888465496915637e-05	0.5116917632645546	0.2006167595778569	-0.3098135638283889	0.02608249991918796	-0.009283389359019824	-0.2927544212307189	0.07765884007920826	0.03796101022249073	0.3614164103080751	-19.65756107282689	-12.29483464477428	0.6494473336277253	-11.18643085767246	-715.6447921870692	-65.22836308287555	-2.047649447165835	0.5847272484212074	0.8186209572952767	-0.08300904627827686	-2.21420280754952	0.1381498611625106	-0.8478736347203869	2.27452016765414	-2.272527264147249	-2.272527264101716	-0.2832735089542847	-0.01655366038653882	-0.8091326961762741	0.001883921593010688	-1.544136280538943e-07	-1.078239690147847e-06	2.740381150477234e-07	-1.393614520760603e-07	-1.775239599985381e-07	-3.143265488606464e-07	-1.731366014545156e-07
0.54	-0.1186949023310823	-0.05207031823976432	0.7461758700726648	1.148721055485323	-0.3176859442306932	-0.04685509652132498	-0.8350755455087362	1.165891202705128	1.165891202704198	-0.02229803409844108	-0.1745207185679111	0.2228637127029575	0.05617350616585896	-0.1281258226530121	-0.1104469688775509	-0.5798465879613665	1.885688228053459	-0.002063347744964247	0.4884947304907352	-0.7331466886892694	2.114432600248411	2.114432600249242	0.3299628792251163	-7.64698605624516e-05	0.5034038571180767	0.2005528618078085	-0.316483252657336	0.02607553787286862	-0.009349227257532724	-0.298206918994525	0.07637643569244421	0.03759515713211423	0.3681088276235016	-20.44969614413471	-11.84367345856094	0.4021012172944438	-10.84254263551593	-721.6812940820854	-65.05196592323554	-1.58987057686374	0.6013992941704998	0.8112083132919039	-0.0004125079106148373	-2.365433363935946	0.1458268543622935	-0.8337157416524369	2.304591346732202	-2.43880351275799	-2.438803512758087	-0.3020581480296096	0.02739447627001929	-0.845019248517312	-0.004853220988734125	-1.356293498724153e-07	-9.658018666658517e-07	2.507793578246516e-07	-1.334807658116037e-07	-1.558406932221055e-07	-2.733383090305141e-07	-1.565536773722828e-07
